<svg version="1.0" xmlns="http://www.w3.org/2000/svg"
width="25.000000pt" height="25.000000pt" viewBox="0 0 250 170"
preserveAspectRatio="xMidYMid meet">
<g transform="translate(0.000000,172.000000) scale(0.100000,-0.100000)"
fill="#ffffff" stroke="none">
<path d="M1237 1682 c-21 -21 -34 -42 -30 -46 5 -4 3 -6 -4 -4 -6 2 -120 -105
-253 -236 -236 -234 -242 -241 -285 -330 -52 -108 -75 -206 -75 -315 0 -271
150 -505 402 -628 27 -13 55 -23 63 -23 8 0 15 -4 15 -9 0 -4 43 -18 95 -31
81 -20 112 -22 217 -17 84 3 142 11 183 25 79 26 149 54 155 62 3 3 26 18 51
33 59 33 157 127 199 190 39 59 100 189 100 214 0 11 6 25 12 31 9 9 12 51 12
140 -2 145 -18 211 -87 347 -38 73 -65 104 -317 357 -151 153 -283 278 -292
278 -22 0 -23 -18 -3 -94 20 -77 40 -103 236 -308 91 -96 180 -195 198 -221
90 -131 131 -285 111 -413 -25 -155 -59 -224 -165 -329 -116 -116 -251 -169
-430 -167 -110 1 -223 29 -319 81 -60 32 -138 100 -166 146 -12 20 -27 32 -32
29 -7 -4 -8 -2 -4 4 4 6 -4 28 -17 49 -37 60 -58 131 -64 223 -12 194 55 339
247 530 262 263 307 321 316 417 5 47 4 53 -13 53 -10 0 -36 -17 -56 -38z"/>
<path d="M1277 1150 c-115 -15 -241 -100 -299 -200 -121 -209 -39 -453 187
-559 78 -37 124 -46 131 -26 13 32 -7 86 -45 123 -75 73 -131 119 -137 113 -3
-3 -4 -1 -3 4 2 6 -5 28 -15 50 -25 55 -24 143 3 198 48 98 134 151 246 151
154 0 266 -106 268 -253 0 -79 -34 -142 -119 -216 -69 -61 -94 -102 -94 -155
0 -30 1 -31 33 -25 43 9 146 57 177 83 53 45 81 79 112 137 66 125 68 235 4
352 -87 160 -264 248 -449 223z"/>
</g>
</svg>